<svg width="17" height="10" viewBox="0 0 17 10" fill="none" xmlns="http://www.w3.org/2000/svg">
<path d="M16.5307 1.53062L9.03068 9.03061C8.96102 9.10035 8.8783 9.15567 8.78726 9.19341C8.69621 9.23115 8.59861 9.25058 8.50005 9.25058C8.40149 9.25058 8.30389 9.23115 8.21285 9.19341C8.1218 9.15567 8.03908 9.10035 7.96943 9.03061L0.469426 1.53062C0.328695 1.38988 0.249634 1.19901 0.249634 0.99999C0.249634 0.800967 0.328695 0.610095 0.469426 0.469364C0.610156 0.328634 0.801028 0.249573 1.00005 0.249573C1.19907 0.249573 1.38995 0.328634 1.53068 0.469364L8.50005 7.43968L15.4694 0.469364C15.5391 0.399682 15.6218 0.344406 15.7129 0.306695C15.8039 0.268983 15.9015 0.249573 16.0001 0.249573C16.0986 0.249573 16.1962 0.268983 16.2872 0.306695C16.3783 0.344406 16.461 0.399682 16.5307 0.469364C16.6004 0.539047 16.6556 0.621773 16.6933 0.712817C16.7311 0.803862 16.7505 0.901444 16.7505 0.99999C16.7505 1.09854 16.7311 1.19612 16.6933 1.28716C16.6556 1.37821 16.6004 1.46093 16.5307 1.53062Z" fill="#100F0F"/>
</svg>
