<svg width="136" height="24" viewBox="0 0 136 24" fill="none" xmlns="http://www.w3.org/2000/svg">
<path d="M21.6488 19.875C20.2209 17.4065 18.0206 15.6365 15.4528 14.7975C16.723 14.0414 17.7098 12.8892 18.2618 11.5179C18.8137 10.1467 18.9003 8.63211 18.5082 7.20688C18.1161 5.78165 17.267 4.52454 16.0912 3.6286C14.9155 2.73266 13.4782 2.24744 12 2.24744C10.5218 2.24744 9.08451 2.73266 7.90878 3.6286C6.73306 4.52454 5.88394 5.78165 5.49183 7.20688C5.09971 8.63211 5.18629 10.1467 5.73825 11.5179C6.29021 12.8892 7.27704 14.0414 8.5472 14.7975C5.97938 15.6356 3.77907 17.4056 2.35126 19.875C2.2989 19.9604 2.26417 20.0554 2.24912 20.1544C2.23407 20.2534 2.239 20.3544 2.26363 20.4515C2.28825 20.5486 2.33207 20.6397 2.3925 20.7196C2.45293 20.7995 2.52874 20.8664 2.61547 20.9165C2.7022 20.9666 2.79808 20.9988 2.89745 21.0113C2.99683 21.0237 3.0977 21.0161 3.19409 20.989C3.29049 20.9618 3.38047 20.9156 3.45872 20.8531C3.53697 20.7906 3.6019 20.713 3.6497 20.625C5.41595 17.5725 8.53782 15.75 12 15.75C15.4622 15.75 18.5841 17.5725 20.3503 20.625C20.3981 20.713 20.4631 20.7906 20.5413 20.8531C20.6196 20.9156 20.7095 20.9618 20.8059 20.989C20.9023 21.0161 21.0032 21.0237 21.1026 21.0113C21.2019 20.9988 21.2978 20.9666 21.3845 20.9165C21.4713 20.8664 21.5471 20.7995 21.6075 20.7196C21.6679 20.6397 21.7118 20.5486 21.7364 20.4515C21.761 20.3544 21.766 20.2534 21.7509 20.1544C21.7358 20.0554 21.7011 19.9604 21.6488 19.875ZM6.75001 8.99999C6.75001 7.96164 7.05792 6.9466 7.63479 6.08324C8.21167 5.21989 9.03161 4.54698 9.99092 4.14962C10.9502 3.75226 12.0058 3.64829 13.0242 3.85086C14.0426 4.05344 14.9781 4.55345 15.7123 5.28768C16.4465 6.0219 16.9466 6.95736 17.1491 7.97576C17.3517 8.99416 17.2477 10.0498 16.8504 11.0091C16.453 11.9684 15.7801 12.7883 14.9168 13.3652C14.0534 13.9421 13.0384 14.25 12 14.25C10.6081 14.2485 9.27359 13.6949 8.28934 12.7107C7.3051 11.7264 6.7515 10.3919 6.75001 8.99999Z" fill="#100F0F"/>
<path d="M77.5306 20.4693L72.8366 15.7762C74.1971 14.1428 74.8755 12.0478 74.7307 9.92691C74.5859 7.80604 73.629 5.82265 72.0591 4.38932C70.4892 2.95599 68.4272 2.18308 66.3019 2.23138C64.1767 2.27968 62.1518 3.14547 60.6487 4.64864C59.1455 6.15181 58.2797 8.17663 58.2314 10.3019C58.1831 12.4271 58.956 14.4892 60.3893 16.0591C61.8227 17.629 63.8061 18.5859 65.9269 18.7307C68.0478 18.8755 70.1429 18.1971 71.7763 16.8365L76.4694 21.5306C76.5391 21.6003 76.6218 21.6556 76.7128 21.6933C76.8039 21.731 76.9015 21.7504 77 21.7504C77.0985 21.7504 77.1961 21.731 77.2872 21.6933C77.3782 21.6556 77.4609 21.6003 77.5306 21.5306C77.6003 21.4609 77.6556 21.3782 77.6933 21.2871C77.731 21.1961 77.7504 21.0985 77.7504 21C77.7504 20.9014 77.731 20.8038 77.6933 20.7128C77.6556 20.6218 77.6003 20.539 77.5306 20.4693ZM59.75 10.5C59.75 9.16495 60.1459 7.8599 60.8876 6.74987C61.6293 5.63984 62.6835 4.77467 63.9169 4.26378C65.1503 3.75289 66.5075 3.61922 67.8169 3.87967C69.1262 4.14012 70.329 4.78299 71.273 5.727C72.217 6.671 72.8599 7.87374 73.1203 9.18311C73.3808 10.4925 73.2471 11.8497 72.7362 13.0831C72.2253 14.3165 71.3601 15.3707 70.2501 16.1124C69.1401 16.8541 67.835 17.25 66.5 17.25C64.7104 17.248 62.9947 16.5362 61.7292 15.2708C60.4638 14.0053 59.752 12.2896 59.75 10.5Z" fill="#100F0F"/>
<path d="M133 12C133 12.1989 132.921 12.3897 132.78 12.5303C132.64 12.671 132.449 12.75 132.25 12.75H115.75C115.551 12.75 115.36 12.671 115.22 12.5303C115.079 12.3897 115 12.1989 115 12C115 11.8011 115.079 11.6103 115.22 11.4697C115.36 11.329 115.551 11.25 115.75 11.25H132.25C132.449 11.25 132.64 11.329 132.78 11.4697C132.921 11.6103 133 11.8011 133 12ZM115.75 6.75H132.25C132.449 6.75 132.64 6.67098 132.78 6.53033C132.921 6.38968 133 6.19891 133 6C133 5.80109 132.921 5.61032 132.78 5.46967C132.64 5.32902 132.449 5.25 132.25 5.25H115.75C115.551 5.25 115.36 5.32902 115.22 5.46967C115.079 5.61032 115 5.80109 115 6C115 6.19891 115.079 6.38968 115.22 6.53033C115.36 6.67098 115.551 6.75 115.75 6.75ZM132.25 17.25H115.75C115.551 17.25 115.36 17.329 115.22 17.4697C115.079 17.6103 115 17.8011 115 18C115 18.1989 115.079 18.3897 115.22 18.5303C115.36 18.671 115.551 18.75 115.75 18.75H132.25C132.449 18.75 132.64 18.671 132.78 18.5303C132.921 18.3897 133 18.1989 133 18C133 17.8011 132.921 17.6103 132.78 17.4697C132.64 17.329 132.449 17.25 132.25 17.25Z" fill="#100F0F"/>
</svg>
