<svg width="20" height="20" viewBox="0 0 20 20" fill="none" xmlns="http://www.w3.org/2000/svg">
<path d="M19.6488 17.875C18.2209 15.4065 16.0206 13.6365 13.4528 12.7975C14.723 12.0414 15.7098 10.8892 16.2618 9.51792C16.8137 8.14665 16.9003 6.63211 16.5082 5.20688C16.1161 3.78165 15.267 2.52454 14.0912 1.6286C12.9155 0.732664 11.4782 0.247437 10 0.247437C8.52182 0.247437 7.08451 0.732664 5.90878 1.6286C4.73306 2.52454 3.88394 3.78165 3.49183 5.20688C3.09971 6.63211 3.18629 8.14665 3.73825 9.51792C4.29021 10.8892 5.27704 12.0414 6.5472 12.7975C3.97938 13.6356 1.77907 15.4056 0.35126 17.875C0.298899 17.9604 0.264169 18.0554 0.249118 18.1544C0.234067 18.2534 0.239 18.3544 0.263626 18.4515C0.288252 18.5486 0.332073 18.6397 0.392502 18.7196C0.452931 18.7995 0.528745 18.8664 0.61547 18.9165C0.702196 18.9666 0.798076 18.9988 0.897455 19.0113C0.996833 19.0237 1.0977 19.0161 1.19409 18.989C1.29049 18.9618 1.38047 18.9156 1.45872 18.8531C1.53697 18.7906 1.6019 18.713 1.6497 18.625C3.41595 15.5725 6.53782 13.75 10 13.75C13.4622 13.75 16.5841 15.5725 18.3503 18.625C18.3981 18.713 18.4631 18.7906 18.5413 18.8531C18.6196 18.9156 18.7095 18.9618 18.8059 18.989C18.9023 19.0161 19.0032 19.0237 19.1026 19.0113C19.2019 18.9988 19.2978 18.9666 19.3845 18.9165C19.4713 18.8664 19.5471 18.7995 19.6075 18.7196C19.6679 18.6397 19.7118 18.5486 19.7364 18.4515C19.761 18.3544 19.766 18.2534 19.7509 18.1544C19.7358 18.0554 19.7011 17.9604 19.6488 17.875ZM4.75001 6.99999C4.75001 5.96164 5.05792 4.9466 5.63479 4.08324C6.21167 3.21989 7.03161 2.54698 7.99092 2.14962C8.95023 1.75226 10.0058 1.64829 11.0242 1.85086C12.0426 2.05344 12.9781 2.55345 13.7123 3.28768C14.4465 4.0219 14.9466 4.95736 15.1491 5.97576C15.3517 6.99416 15.2477 8.04976 14.8504 9.00908C14.453 9.96839 13.7801 10.7883 12.9168 11.3652C12.0534 11.9421 11.0384 12.25 10 12.25C8.60808 12.2485 7.27359 11.6949 6.28934 10.7107C5.3051 9.72641 4.7515 8.39192 4.75001 6.99999Z" fill="#100F0F"/>
</svg>
